<svg xmlns="http://www.w3.org/2000/svg" version="1.1" xmlns:xlink="http://www.w3.org/1999/xlink" xmlns:svgjs="http://svgjs.dev/svgjs" width="100%" height="100%" viewBox="0 0 1000 600"><rect width="1000" height="600" x="0" y="0" fill="#023a15"/><g><circle r="166.66666666666666" cx="364.79357401529944" cy="387.01572093477694" fill="#f09c96" transform="matrix(0.6309090867549361,0,0,0.630909086754936,0,55.828274817209945)"/><path d="M373.3230872485348 462.01573344547177L373.3230872485348 462.01573344547177Q353.07436957559423 462.01573344547177 338.2651808415167 452.64607365025734Q323.4559921074392 443.2764138550429 315.45333434921656 426.67303494741367Q307.42219738188993 410.04117683068046 307.42219738188993 388.22610265702014L307.42219738188993 388.22610265702014L307.42219738188993 385.80536988318056Q307.42219738188993 363.7909412457922 315.48181355832054 347.216041547267Q323.5414297347512 330.64114184874177 337.5532006139169 321.32844047173535Q351.5934507021865 312.01573909472893 369.3929563921835 312.01573909472893L369.3929563921835 312.01573909472893Q386.42352343637265 312.01573909472893 398.29935363273864 315.9458699510803Q410.14670462000066 319.8475215983276 418.57655051478326 326.4546981104545L418.57655051478326 326.4546981104545L418.57655051478326 355.87372111488156L402.34340132550597 355.87372111488156L400.2359398518103 334.7421479597171Q395.33751588592315 331.5524765400696 388.2177136099243 329.9006824120379Q381.1263905430295 328.2488882840062 371.4149802385671 328.2488882840062L371.4149802385671 328.2488882840062Q358.88412823280925 328.2488882840062 348.8879258373069 335.454128187317Q338.86324423270065 342.65936809062777 333.0534855754856 355.5319706056336Q327.24372691827057 368.40457312063944 327.24372691827057 385.6060154194526L327.24372691827057 385.6060154194526L327.24372691827057 388.22610265702014Q327.24372691827057 405.65537862866523 332.5978182298217 418.61341877098306Q337.9803887504768 431.5714589133009 348.28986244612304 438.71974039840364Q358.59933614176936 445.89650109261044 373.3230872485348 445.89650109261044L373.3230872485348 445.89650109261044Q383.31928964403716 445.89650109261044 390.239737456308 444.13079012816274Q397.1317060594749 442.39355837281903 402.45731816192193 439.57411667152354L402.45731816192193 439.57411667152354L402.45731816192193 405.3421073285213L374.5192140309027 404.3453350098814L374.5192140309027 389.82093836684385L422.16493086188666 389.82093836684385L422.16493086188666 446.29521002006635Q415.87102564990374 452.1904063045934 404.10911228995366 457.11730947958455Q392.3471989300037 462.01573344547177 373.3230872485348 462.01573344547177Z " fill="#023a15" transform="matrix(0.6309090867549361,0,0,0.630909086754936,0,55.828274817209945)"/><path d="M650.1781827680418 462.01574507250524L650.1781827680418 462.01574507250524Q644.3234816588234 462.01574507250524 637.4858745239698 460.41318090027397Q630.6482673891163 458.7892492057462 625.4559594710869 456.01147130721193L625.4559594710869 456.01147130721193L629.302113484442 444.5157443117394Q633.4260452876505 446.695231585974 639.0670711739048 448.12685557983394Q644.6867295378626 449.5584795736939 650.0286101119668 449.5584795736939L650.0286101119668 449.5584795736939Q659.9431404575046 449.5584795736939 664.5585252735307 444.0029237766254Q669.1952776118533 438.42600045726044 669.1952776118533 428.1482222326836L669.1952776118533 428.1482222326836L669.1952776118533 420.4131791613805Q665.1995509424232 425.5200169902243 659.6439951453548 428.1482222326836Q654.0884393482862 430.776427475143 646.8662168120972 430.776427475143L646.8662168120972 430.776427475143Q636.9516864665594 430.776427475143 629.7508314526667 425.861897346967Q622.5286089164777 420.92599969649456 618.6610873808261 412.10121298807417Q614.7935658451745 403.2764262796538 614.7935658451745 391.6311266281063L614.7935658451745 391.6311266281063L614.7935658451745 390.0499299781714Q614.7935658451745 376.99437385506036 618.6610873808261 367.1439460764119Q622.5286089164777 357.3148858200599 629.7508314526667 351.86616763447347Q636.9516864665594 346.417449448887 647.015789468172 346.417449448887L647.015789468172 346.417449448887Q654.6867299725858 346.417449448887 660.477328514915 349.40890257038546Q666.2465595349477 352.4217232141803 670.1568161151921 358.12685166732376L670.1568161151921 358.12685166732376L671.5243375421627 347.91317600963623L683.9816030409742 347.91317600963623L683.9816030409742 428.1482222326836Q683.9816030409742 438.661043202521 680.0499789384334 446.2465136177492Q676.0969873135961 453.8319840329774 668.5542519429608 457.93454831388954Q660.990149050029 462.01574507250524 650.1781827680418 462.01574507250524ZM650.5627981693773 418.74651242225997L650.5627981693773 418.74651242225997Q657.250832648156 418.74651242225997 661.7380123304036 415.7123242561687Q666.2465595349477 412.67813609007743 669.1952776118533 407.1012127707125L669.1952776118533 407.1012127707125L669.1952776118533 369.708048751982Q666.3320296241333 364.5157408339526 661.7380123304036 361.4815526678613Q657.1653625589703 358.4259969794736 650.7123708254522 358.4259969794736L650.7123708254522 358.4259969794736Q643.639720945338 358.4259969794736 638.9388660401262 362.4858262157929Q634.2593786572107 366.5456554521122 631.9303187269013 373.6396728545228Q629.6012587965919 380.73369025693336 629.6012587965919 390.0499299781714L629.6012587965919 390.0499299781714L629.6012587965919 391.6311266281063Q629.6012587965919 403.87471690395347 634.7721991923248 411.3106146631067Q639.9645071103542 418.74651242225997 650.5627981693773 418.74651242225997ZM694.0457060425867 357.3789883869492L681.7380131998503 360.0071936294085L675.9474146575212 347.91317600963623L694.0457060425867 347.91317600963623L694.0457060425867 357.3789883869492ZM740.541434559591 429.1952308252081L701.2679285787758 429.1952308252081L701.2679285787758 419.72941844789517L713.511518854623 417.6354012628463L713.511518854623 359.5584756611837L701.2679285787758 357.46445847613484L701.2679285787758 347.91317600963623L726.7380151561055 347.91317600963623L727.9986989715941 358.27642432339866L728.1482716276689 359.70804831725866Q731.6098102396886 353.46873180670474 736.6739130239395 349.94309062779587Q741.7593833304869 346.417449448887 748.2764776308942 346.417449448887L748.2764776308942 346.417449448887Q750.6055375612036 346.417449448887 753.0628026252917 346.82343237251894Q755.4987001670833 347.2294152961509 756.5457087596077 347.6140306974864L756.5457087596077 347.6140306974864L754.6012642306338 361.3533475340828L744.3021184837605 360.7550569097831Q738.4474173745422 360.391809030744 734.4730582274085 363.4259971968353Q730.4773315579785 366.46018536292655 728.2978442837439 371.58839071406675L728.2978442837439 371.58839071406675L728.2978442837439 417.6354012628463L740.541434559591 419.72941844789517L740.541434559591 429.1952308252081ZM802.2935739962373 430.776427475143L802.2935739962373 430.776427475143Q791.0328897460255 430.776427475143 782.870496228794 425.4772819456315Q774.7294702338589 420.17813641611997 770.3063931185005 410.8191616502891Q765.8619484808456 401.4815544067547 765.8619484808456 389.4516393538717L765.8619484808456 389.4516393538717L765.8619484808456 387.8063401370475Q765.8619484808456 375.77642508416454 770.3063931185005 366.4388178406301Q774.7294702338589 357.07984307479927 782.870496228794 351.73796250069495Q791.0328897460255 346.417449448887 802.1440013401625 346.417449448887L802.1440013401625 346.417449448887Q813.426053112671 346.417449448887 821.567079107606 351.73796250069495Q829.7081051025409 357.07984307479927 834.1525497401958 366.3960827960373Q838.5756268555542 375.7123225172753 838.5756268555542 387.8063401370475L838.5756268555542 387.8063401370475L838.5756268555542 389.4516393538717Q838.5756268555542 401.54565697364393 834.1525497401958 410.9046317394748Q829.7081051025409 420.26360650530563 821.6098141521987 425.5200169902243Q813.4901556795602 430.776427475143 802.2935739962373 430.776427475143ZM802.2935739962373 419.19523039048477L802.2935739962373 419.19523039048477Q809.3662238763516 419.19523039048477 814.1311813484527 415.3277088548332Q818.8961388205538 411.46018731918167 821.3320363623453 404.7507853181066Q823.7893014264333 398.02001579473506 823.7893014264333 389.4516393538717L823.7893014264333 389.4516393538717L823.7893014264333 387.8063401370475Q823.7893014264333 379.2379636961842 821.3320363623453 372.50719417281266Q818.8961388205538 365.7977921717376 814.0884463038598 361.93027063608605Q809.280753787166 358.0627491004345 802.1440013401625 358.0627491004345L802.1440013401625 358.0627491004345Q795.0927189823448 358.0627491004345 790.2850264656508 361.93027063608605Q785.4773339489569 365.7977921717376 783.0628039294617 372.50719417281266Q780.669641432263 379.2379636961842 780.669641432263 387.8063401370475L780.669641432263 387.8063401370475L780.669641432263 389.4516393538717Q780.669641432263 398.02001579473506 783.0628039294617 404.7507853181066Q785.4773339489569 411.46018731918167 790.3063939879472 415.3277088548332Q795.156821549234 419.19523039048477 802.2935739962373 419.19523039048477ZM782.101265426123 439.04565860385657L772.4004103035494 439.04565860385657L822.2722073433878 338.0841157532842L831.9730624659612 338.0841157532842L782.101265426123 439.04565860385657ZM889.2807572649527 429.1952308252081L850.0072512841375 429.1952308252081L850.0072512841375 419.72941844789517L862.2508415599847 417.6354012628463L862.2508415599847 359.5584756611837L850.0072512841375 357.46445847613484L850.0072512841375 347.91317600963623L875.4559703391707 347.91317600963623L876.5243464539916 360.0071936294085Q880.5841756903109 353.5542018958904 886.6952870670863 349.9858256723887Q892.827765966158 346.417449448887 900.6269116043503 346.417449448887L900.6269116043503 346.417449448887Q913.7679378166471 346.417449448887 920.9901603528361 354.1097574755973Q928.191015366729 361.8020655023075 928.191015366729 377.89180979150984L928.191015366729 377.89180979150984L928.191015366729 417.6354012628463L940.434605642576 419.72941844789517L940.434605642576 429.1952308252081L901.1610996617609 429.1952308252081L901.1610996617609 419.72941844789517L913.404689937608 417.6354012628463L913.404689937608 378.19095510365975Q913.404689937608 367.44309138856175 909.152553000621 362.9345441840177Q904.9217835859303 358.4259969794736 896.2038344889919 358.4259969794736L896.2038344889919 358.4259969794736Q889.8149453223632 358.4259969794736 884.9004151941872 361.5029201901577Q879.9645175437148 364.60121092313824 877.0371669891056 369.9217239749462L877.0371669891056 369.9217239749462L877.0371669891056 417.6354012628463L889.2807572649527 419.72941844789517L889.2807572649527 429.1952308252081ZM990.1781975486357 429.1952308252081L950.8833240455241 429.1952308252081L950.8833240455241 419.72941844789517L963.1269143213714 417.6354012628463L963.1269143213714 359.5584756611837L950.8833240455241 357.46445847613484L950.8833240455241 347.91317600963623L976.3534106228537 347.91317600963623L977.4004192153782 360.0071936294085Q981.4602484516976 353.5542018958904 987.5927273507692 349.9858256723887Q993.7038387275446 346.417449448887 1001.5243518880335 346.417449448887L1001.5243518880335 346.417449448887Q1014.6653781003303 346.417449448887 1021.8662331142228 354.1097574755973Q1029.088455650412 361.8020655023075 1029.088455650412 377.89180979150984L1029.088455650412 377.89180979150984L1029.088455650412 417.6354012628463L1041.332045926259 419.72941844789517L1041.332045926259 429.1952308252081L1002.0371724231476 429.1952308252081L1002.0371724231476 419.72941844789517L1014.2807626989946 417.6354012628463L1014.2807626989946 378.19095510365975Q1014.2807626989946 367.44309138856175 1010.049993284304 362.9345441840177Q1005.797856347317 358.4259969794736 997.0799072503786 358.4259969794736L997.0799072503786 358.4259969794736Q990.6910180837498 358.4259969794736 985.7764879555739 361.5029201901577Q980.8619578273979 364.60121092313824 977.9346072727886 369.9217239749462L977.9346072727886 369.9217239749462L977.9346072727886 417.6354012628463L990.1781975486357 419.72941844789517L990.1781975486357 429.1952308252081ZM1088.7252103797132 460.45591594486683L1049.5158069657869 460.45591594486683L1049.5158069657869 450.9046334783682L1061.0115339612594 448.81061629331936L1061.0115339612594 359.5584756611837L1048.7679436854123 357.46445847613484L1048.7679436854123 347.91317600963623L1073.7038422053315 347.91317600963623L1075.0499961100058 357.8277063551739Q1079.1098253463251 352.27215055810535 1084.943158933247 349.3448000034962Q1090.7551249978728 346.417449448887 1098.4260655022867 346.417449448887L1098.4260655022867 346.417449448887Q1108.490168503899 346.417449448887 1115.6269209509028 351.86616763447347Q1122.7636733979061 357.3148858200599 1126.5243573220755 367.10121103181905Q1130.2636737239486 376.90890376587464 1130.2636737239486 390.0499299781714L1130.2636737239486 390.0499299781714L1130.2636737239486 391.6311266281063Q1130.2636737239486 403.36189636883944 1126.4816222774825 412.14394803266697Q1122.6782033087202 420.92599969649456 1115.6269209509028 425.861897346967Q1108.5542710707882 430.776427475143 1098.6397407252507 430.776427475143L1098.6397407252507 430.776427475143Q1091.1397403992082 430.776427475143 1085.455979468361 428.2550598441657Q1079.7935860598104 425.7336922131885 1075.819226912677 420.7764270404196L1075.819226912677 420.7764270404196L1075.819226912677 448.81061629331936L1088.7252103797132 450.9046334783682L1088.7252103797132 460.45591594486683ZM1094.0670909538176 419.19523039048477L1094.0670909538176 419.19523039048477Q1104.579911923655 419.19523039048477 1109.9858950646485 411.5456574083673Q1115.3918782056421 403.87471690395347 1115.3918782056421 391.6311266281063L1115.3918782056421 391.6311266281063L1115.3918782056421 390.0499299781714Q1115.3918782056421 380.73369025693336 1112.9987157084433 373.6396728545228Q1110.5841856889483 366.5456554521122 1105.819228216847 362.4858262157929Q1101.0542707447457 358.4259969794736 1093.9175182977424 358.4259969794736L1093.9175182977424 358.4259969794736Q1087.614099220299 358.4259969794736 1083.1055520157552 361.28924496719355Q1078.5970048112113 364.13112543261707 1075.819226912677 369.0883906053859L1075.819226912677 369.0883906053859L1075.819226912677 408.6824094206474Q1078.5970048112113 413.72514468260187 1083.0628169711622 416.4601875365433Q1087.5286291311136 419.19523039048477 1094.0670909538176 419.19523039048477ZM1167.9773505771254 430.776427475143L1167.9773505771254 430.776427475143Q1155.2850423330533 430.776427475143 1148.68247794346 424.57984600918195Q1142.058546031571 418.3832645432209 1142.058546031571 407.1012127707125L1142.058546031571 407.1012127707125Q1142.058546031571 399.3661696994094 1146.310682968558 393.6183062016731Q1150.562819905545 387.8704427039368 1158.597008288998 384.6866818817706Q1166.631196672451 381.50292105960443 1177.8277783557737 381.50292105960443L1177.8277783557737 381.50292105960443L1192.3149584727448 381.50292105960443L1192.3149584727448 373.5328352430407Q1192.3149584727448 366.1610400507767 1187.8491463127934 362.1225783367538Q1183.383334152842 358.0627491004345 1175.2636756802035 358.0627491004345L1175.2636756802035 358.0627491004345Q1170.1568378513598 358.0627491004345 1166.3961539271904 359.3020653936267Q1162.6568375253173 360.5413816868189 1159.5799143146332 362.7208689610535L1159.5799143146332 362.7208689610535L1157.9987176646982 374.0670233004511L1146.567093236115 374.0670233004511L1146.567093236115 355.43454385797514Q1152.0585464662945 350.99009922032036 1159.3448715693726 348.7037743346037Q1166.631196672451 346.417449448887 1175.4987184254642 346.417449448887L1175.4987184254642 346.417449448887Q1190.2850438545852 346.417449448887 1198.7038476393736 353.46873180670474Q1207.122651424162 360.5413816868189 1207.122651424162 373.6824078991156L1207.122651424162 373.6824078991156L1207.122651424162 412.8277087461524Q1207.122651424162 414.38753787379085 1207.165386468755 415.90463195683645Q1207.1867539910513 417.4003585175857 1207.336326647126 418.8960850783349L1207.336326647126 418.8960850783349L1215.2423098968006 419.72941844789517L1215.2423098968006 429.1952308252081L1193.9816252118653 429.1952308252081Q1193.29786449838 425.8832648692634 1192.9132490970442 423.25505962680404Q1192.5500012180055 420.6268543843447 1192.4004285619303 417.9986491418854L1192.4004285619303 417.9986491418854Q1188.1055565803504 423.49010237206465 1181.6952998914253 427.1225811624556Q1175.2636756802035 430.776427475143 1167.9773505771254 430.776427475143ZM1170.1568378513598 418.3832645432209L1170.1568378513598 418.3832645432209Q1177.5286330436238 418.3832645432209 1183.6183768981027 414.857623364312Q1189.6867532302854 411.3106146631067 1192.3149584727448 406.35334949033785L1192.3149584727448 406.35334949033785L1192.3149584727448 391.6311266281063L1177.2935902983631 391.6311266281063Q1167.0799146406757 391.6311266281063 1161.973076811832 396.5242892339859Q1156.8662389829883 401.39608431756903 1156.8662389829883 407.40035808286234L1156.8662389829883 407.40035808286234Q1156.8662389829883 412.74223865696666 1160.178204938933 415.5627516000938Q1163.468803372581 418.3832645432209 1170.1568378513598 418.3832645432209ZM1265.8619702170135 429.1952308252081L1226.5670967139017 429.1952308252081L1226.5670967139017 419.72941844789517L1238.8320545120455 417.6354012628463L1238.8320545120455 359.5584756611837L1226.5670967139017 357.46445847613484L1226.5670967139017 347.91317600963623L1252.0371832912315 347.91317600963623L1253.3192346290161 358.27642432339866L1253.4688072850913 359.70804831725866Q1256.9303458971108 353.46873180670474 1261.994448681362 349.94309062779587Q1267.0585514656127 346.417449448887 1273.5970132883162 346.417449448887L1273.5970132883162 346.417449448887Q1275.9260732186258 346.417449448887 1278.3619707604175 346.82343237251894Q1280.8192358245055 347.2294152961509 1281.86624441703 347.6140306974864L1281.86624441703 347.6140306974864L1279.9217998880558 361.3533475340828L1269.622654141183 360.7550569097831Q1263.7679530319642 360.391809030744 1259.7722263625342 363.4259971968353Q1255.7978672154009 366.46018536292655 1253.618379941166 371.58839071406675L1253.618379941166 371.58839071406675L1253.618379941166 417.6354012628463L1265.8619702170135 419.72941844789517L1265.8619702170135 429.1952308252081ZM1321.9730837674056 430.47728216299316L1321.9730837674056 430.47728216299316Q1312.9559893583173 430.47728216299316 1307.6782113511022 425.17813663348164Q1302.3790658215908 419.8789911039701 1302.3790658215908 408.2336914524226L1302.3790658215908 408.2336914524226L1302.3790658215908 358.87471494769835L1289.537184921444 358.87471494769835L1289.537184921444 347.91317600963623L1302.3790658215908 347.91317600963623L1302.3790658215908 328.3191580638214L1317.1653912507113 328.3191580638214L1317.1653912507113 347.91317600963623L1334.8149646675524 347.91317600963623L1334.8149646675524 358.87471494769835L1317.1653912507113 358.87471494769835L1317.1653912507113 408.2336914524226Q1317.1653912507113 414.088392561641 1319.4944511810213 416.8661704601753Q1321.8235111113304 419.66531588100594 1325.733767691575 419.66531588100594L1325.733767691575 419.66531588100594Q1328.3619729340344 419.66531588100594 1331.5884688007932 419.17386286818834Q1334.8149646675524 418.68240985537074 1336.6312040627477 418.2977944540352L1336.6312040627477 418.2977944540352L1338.6611186809073 427.9986495766087Q1335.4346228141485 428.9601880799475 1330.733767908937 429.7294188826185Q1326.0329130037248 430.47728216299316 1321.9730837674056 430.47728216299316ZM1386.8876165039214 429.1952308252081L1347.59274300081 429.1952308252081L1347.59274300081 419.72941844789517L1359.8363332766571 417.6354012628463L1359.8363332766571 359.5584756611837L1347.59274300081 357.46445847613484L1347.59274300081 347.91317600963623L1374.6440262280744 347.91317600963623L1374.6440262280744 417.6354012628463L1386.8876165039214 419.72941844789517L1386.8876165039214 429.1952308252081ZM1374.6440262280744 327.84907257330025L1359.0884699962826 327.84907257330025L1359.0884699962826 312.015738551655L1374.6440262280744 312.015738551655L1374.6440262280744 327.84907257330025Z " fill="#ffffff" transform="matrix(0.6309090867549361,0,0,0.630909086754936,0,55.828274817209945)"/></g></svg>